<svg width="1293" height="340" viewBox="0 0 1293 340" fill="none" xmlns="http://www.w3.org/2000/svg">
<path d="M170 78.3333C134.571 78.3333 105.833 107.071 105.833 142.5C105.833 190.625 170 261.667 170 261.667C170 261.667 234.167 190.625 234.167 142.5C234.167 107.071 205.429 78.3333 170 78.3333ZM170 165.417C157.35 165.417 147.083 155.15 147.083 142.5C147.083 129.85 157.35 119.583 170 119.583C182.65 119.583 192.917 129.85 192.917 142.5C192.917 155.15 182.65 165.417 170 165.417Z" fill="#4485AA"/>
<path d="M305.823 153.572C313.635 141.42 327.378 135.344 347.053 135.344V161.167C344.738 160.733 342.641 160.516 340.76 160.516C330.199 160.516 321.953 163.626 316.022 169.847C310.091 175.923 307.125 184.748 307.125 196.321V252.524H280V136.646H305.823V153.572Z" fill="white"/>
<path d="M413.696 135.344C430.766 135.344 443.786 139.467 452.756 147.713C461.87 155.814 466.427 168.111 466.427 184.603V252.524H440.821V238.419C437.493 243.482 432.719 247.388 426.499 250.137C420.423 252.741 413.045 254.043 404.365 254.043C395.685 254.043 388.09 252.596 381.58 249.703C375.07 246.665 370.006 242.542 366.39 237.334C362.918 231.981 361.182 225.978 361.182 219.323C361.182 208.907 365.015 200.589 372.683 194.368C380.495 188.003 392.719 184.82 409.356 184.82H439.302V183.084C439.302 174.983 436.842 168.762 431.924 164.422C427.15 160.082 419.989 157.912 410.441 157.912C403.931 157.912 397.493 158.925 391.128 160.95C384.907 162.975 379.627 165.796 375.287 169.413L364.654 149.666C370.73 145.037 378.035 141.492 386.571 139.033C395.106 136.574 404.148 135.344 413.696 135.344ZM410.007 234.296C416.806 234.296 422.81 232.777 428.018 229.739C433.37 226.556 437.132 222.072 439.302 216.285V202.831H411.309C395.685 202.831 387.873 207.967 387.873 218.238C387.873 223.157 389.826 227.063 393.732 229.956C397.638 232.849 403.063 234.296 410.007 234.296Z" fill="white"/>
<path d="M537.043 254.043C527.64 254.043 518.454 252.813 509.484 250.354C500.515 247.895 493.354 244.784 488.001 241.023L498.417 220.408C503.625 223.88 509.846 226.701 517.079 228.871C524.457 230.896 531.691 231.909 538.779 231.909C554.982 231.909 563.083 227.641 563.083 219.106C563.083 215.055 560.986 212.234 556.79 210.643C552.74 209.052 546.157 207.533 537.043 206.086C527.495 204.639 519.683 202.976 513.607 201.095C507.676 199.214 502.468 195.959 497.983 191.33C493.643 186.556 491.473 179.974 491.473 171.583C491.473 160.588 496.03 151.836 505.144 145.326C514.403 138.671 526.844 135.344 542.468 135.344C550.425 135.344 558.382 136.284 566.338 138.165C574.295 139.901 580.805 142.288 585.868 145.326L575.452 165.941C565.615 160.154 554.548 157.261 542.251 157.261C534.295 157.261 528.219 158.491 524.023 160.95C519.973 163.265 517.947 166.375 517.947 170.281C517.947 174.621 520.117 177.731 524.457 179.612C528.942 181.348 535.814 183.012 545.072 184.603C554.331 186.05 561.926 187.713 567.857 189.594C573.789 191.475 578.852 194.657 583.047 199.142C587.387 203.627 589.557 209.992 589.557 218.238C589.557 229.088 584.856 237.768 575.452 244.278C566.049 250.788 553.246 254.043 537.043 254.043Z" fill="white"/>
<path d="M682.574 246.231C679.391 248.835 675.485 250.788 670.856 252.09C666.371 253.392 661.597 254.043 656.534 254.043C643.803 254.043 633.966 250.716 627.022 244.061C620.078 237.406 616.606 227.714 616.606 214.983V159.214H597.51V137.514H616.606V111.04H643.731V137.514H674.762V159.214H643.731V214.332C643.731 219.974 645.105 224.314 647.854 227.352C650.603 230.245 654.581 231.692 659.789 231.692C665.865 231.692 670.928 230.101 674.979 226.918L682.574 246.231Z" fill="white"/>
<path d="M730.711 153.572C738.523 141.42 752.266 135.344 771.941 135.344V161.167C769.626 160.733 767.528 160.516 765.648 160.516C755.087 160.516 746.841 163.626 740.91 169.847C734.978 175.923 732.013 184.748 732.013 196.321V252.524H704.888V136.646H730.711V153.572Z" fill="white"/>
<path d="M902.826 195.236C902.826 197.117 902.681 199.793 902.392 203.265H811.469C813.06 211.8 817.183 218.6 823.838 223.663C830.637 228.582 839.028 231.041 849.01 231.041C861.74 231.041 872.229 226.846 880.475 218.455L895.014 235.164C889.806 241.385 883.223 246.086 875.267 249.269C867.31 252.452 858.341 254.043 848.359 254.043C835.628 254.043 824.416 251.511 814.724 246.448C805.031 241.385 797.508 234.368 792.156 225.399C786.948 216.285 784.344 206.014 784.344 194.585C784.344 183.301 786.875 173.174 791.939 164.205C797.147 155.091 804.308 148.002 813.422 142.939C822.536 137.876 832.807 135.344 844.236 135.344C855.52 135.344 865.574 137.876 874.399 142.939C883.368 147.858 890.312 154.874 895.231 163.988C900.294 172.957 902.826 183.373 902.826 195.236ZM844.236 157.044C835.556 157.044 828.178 159.648 822.102 164.856C816.17 169.919 812.554 176.719 811.252 185.254H877.003C875.845 176.863 872.301 170.064 866.37 164.856C860.438 159.648 853.06 157.044 844.236 157.044Z" fill="white"/>
<path d="M928.881 136.646H956.006V252.524H928.881V136.646ZM942.552 117.55C937.633 117.55 933.51 116.031 930.183 112.993C926.856 109.81 925.192 105.904 925.192 101.275C925.192 96.6457 926.856 92.812 930.183 89.774C933.51 86.5913 937.633 85 942.552 85C947.471 85 951.594 86.519 954.921 89.557C958.248 92.4503 959.912 96.1393 959.912 100.624C959.912 105.398 958.248 109.449 954.921 112.776C951.738 115.959 947.615 117.55 942.552 117.55Z" fill="white"/>
<path d="M1035.88 135.344C1052.95 135.344 1065.97 139.467 1074.94 147.713C1084.05 155.814 1088.61 168.111 1088.61 184.603V252.524H1063V238.419C1059.67 243.482 1054.9 247.388 1048.68 250.137C1042.6 252.741 1035.22 254.043 1026.54 254.043C1017.86 254.043 1010.27 252.596 1003.76 249.703C997.249 246.665 992.186 242.542 988.569 237.334C985.097 231.981 983.361 225.978 983.361 219.323C983.361 208.907 987.195 200.589 994.862 194.368C1002.67 188.003 1014.9 184.82 1031.54 184.82H1061.48V183.084C1061.48 174.983 1059.02 168.762 1054.1 164.422C1049.33 160.082 1042.17 157.912 1032.62 157.912C1026.11 157.912 1019.67 158.925 1013.31 160.95C1007.09 162.975 1001.81 165.796 997.466 169.413L986.833 149.666C992.909 145.037 1000.22 141.492 1008.75 139.033C1017.29 136.574 1026.33 135.344 1035.88 135.344ZM1032.19 234.296C1038.99 234.296 1044.99 232.777 1050.2 229.739C1055.55 226.556 1059.31 222.072 1061.48 216.285V202.831H1033.49C1017.86 202.831 1010.05 207.967 1010.05 218.238C1010.05 223.157 1012.01 227.063 1015.91 229.956C1019.82 232.849 1025.24 234.296 1032.19 234.296Z" fill="white"/>
<path d="M1233.48 197.16C1233.48 199.041 1233.34 201.717 1233.05 205.189H1142.13C1143.72 213.724 1147.84 220.524 1154.49 225.587C1161.29 230.506 1169.68 232.965 1179.67 232.965C1192.4 232.965 1202.89 228.77 1211.13 220.379L1225.67 237.088C1220.46 243.309 1213.88 248.01 1205.92 251.193C1197.97 254.376 1189 255.967 1179.01 255.967C1166.28 255.967 1155.07 253.435 1145.38 248.372C1135.69 243.309 1128.16 236.292 1122.81 227.323C1117.6 218.209 1115 207.938 1115 196.509C1115 185.225 1117.53 175.098 1122.6 166.129C1127.8 157.015 1134.96 149.926 1144.08 144.863C1153.19 139.8 1163.46 137.268 1174.89 137.268C1186.18 137.268 1196.23 139.8 1205.06 144.863C1214.02 149.782 1220.97 156.798 1225.89 165.912C1230.95 174.881 1233.48 185.297 1233.48 197.16ZM1174.89 158.968C1166.21 158.968 1158.83 161.572 1152.76 166.78C1146.83 171.843 1143.21 178.643 1141.91 187.178H1207.66C1206.5 178.787 1202.96 171.988 1197.03 166.78C1191.09 161.572 1183.72 158.968 1174.89 158.968ZM1193.34 122.729L1174.24 106.671L1155.15 122.729H1132.79L1161.87 93H1186.61L1215.69 122.729H1193.34Z" fill="#4485AA"/>
</svg>
